<svg width="22" height="22" viewBox="0 0 22 22" fill="none" xmlns="http://www.w3.org/2000/svg">
<g id="linkedin-svgrepo-com (1) 1" clip-path="url(#clip0_64_55)">
<g id="XMLID_801_">
<path id="XMLID_802_" d="M5.12098 7.07751H0.704448C0.508435 7.07751 0.349609 7.23641 0.349609 7.43235V21.6208C0.349609 21.8168 0.508435 21.9756 0.704448 21.9756H5.12098C5.317 21.9756 5.47582 21.8168 5.47582 21.6208V7.43235C5.47582 7.23641 5.317 7.07751 5.12098 7.07751Z" fill="#F6CB05"/>
<path id="XMLID_803_" d="M2.91436 0.0246582C1.30737 0.0246582 0 1.33061 0 2.93583C0 4.54175 1.30737 5.8482 2.91436 5.8482C4.52008 5.8482 5.82638 4.54168 5.82638 2.93583C5.82645 1.33061 4.52008 0.0246582 2.91436 0.0246582Z" fill="#F6CB05"/>
<path id="XMLID_804_" d="M16.3549 6.72498C14.581 6.72498 13.2698 7.48752 12.4744 8.35397V7.43245C12.4744 7.23651 12.3156 7.07761 12.1196 7.07761H7.88999C7.69398 7.07761 7.53516 7.23651 7.53516 7.43245V21.6209C7.53516 21.8169 7.69398 21.9757 7.88999 21.9757H12.2969C12.4929 21.9757 12.6517 21.8169 12.6517 21.6209V14.6009C12.6517 12.2353 13.2943 11.3137 14.9433 11.3137C16.7392 11.3137 16.8819 12.7912 16.8819 14.7226V21.621C16.8819 21.817 17.0407 21.9758 17.2367 21.9758H21.6452C21.8413 21.9758 22.0001 21.817 22.0001 21.621V13.8384C22.0001 10.3208 21.3294 6.72498 16.3549 6.72498Z" fill="#F6CB05"/>
</g>
</g>
<defs>
<clipPath id="clip0_64_55">
<rect width="22" height="22" fill="white"/>
</clipPath>
</defs>
</svg>
