<svg width="26" height="26" viewBox="0 0 26 26" fill="none" xmlns="http://www.w3.org/2000/svg">
<g id="twitter-svgrepo-com 1" clip-path="url(#clip0_64_49)">
<g id="XMLID_826_">
<path id="XMLID_827_" d="M25.4108 4.81323C25.0024 4.99439 24.5824 5.14729 24.1533 5.27142C24.6614 4.6969 25.0487 4.0209 25.2851 3.28116C25.3381 3.11535 25.2832 2.93385 25.1469 2.82541C25.0108 2.71688 24.8216 2.70388 24.6718 2.7927C23.7605 3.33316 22.7774 3.72157 21.7465 3.94869C20.7081 2.93402 19.2977 2.35657 17.8397 2.35657C14.7621 2.35657 12.2582 4.86037 12.2582 7.93793C12.2582 8.18032 12.2735 8.42136 12.3039 8.65905C8.48482 8.32373 4.93431 6.44662 2.49619 3.45586C2.4093 3.34926 2.27544 3.29181 2.13839 3.3028C2.00126 3.31354 1.87806 3.39086 1.80878 3.50971C1.31428 4.35823 1.05285 5.3287 1.05285 6.31612C1.05285 7.66099 1.53301 8.937 2.3812 9.93406C2.1233 9.84473 1.87302 9.7331 1.63416 9.6005C1.50592 9.52913 1.34942 9.53022 1.22202 9.60327C1.09453 9.67632 1.0146 9.81068 1.01125 9.95754C1.01066 9.98228 1.01066 10.007 1.01066 10.0321C1.01066 12.0396 2.09109 13.8469 3.74293 14.832C3.60102 14.8178 3.45919 14.7972 3.31829 14.7703C3.17302 14.7425 3.02365 14.7935 2.92569 14.9043C2.82756 15.015 2.7951 15.1693 2.84031 15.3102C3.45173 17.2191 5.0259 18.6232 6.92893 19.0513C5.35057 20.0398 3.54558 20.5577 1.65077 20.5577C1.2554 20.5577 0.857766 20.5344 0.468605 20.4884C0.275282 20.4654 0.0904307 20.5795 0.024592 20.7634C-0.0412467 20.9473 0.0285339 21.1524 0.193005 21.2578C2.62719 22.8186 5.44182 23.6435 8.33243 23.6435C14.015 23.6435 17.5699 20.9638 19.5513 18.7158C22.0222 15.9128 23.4393 12.2026 23.4393 8.53668C23.4393 8.38353 23.4369 8.22888 23.4322 8.07472C24.4071 7.34026 25.2464 6.4514 25.9293 5.42977C26.0331 5.27461 26.0218 5.06954 25.9016 4.92671C25.7816 4.78379 25.5816 4.73758 25.4108 4.81323Z" fill="#F6CB05"/>
</g>
</g>
<defs>
<clipPath id="clip0_64_49">
<rect width="26" height="26" fill="white"/>
</clipPath>
</defs>
</svg>
